<svg width="253" height="142" viewBox="0 0 253 142" fill="none" xmlns="http://www.w3.org/2000/svg">
<path d="M59.4 0.399994V4.39999C54.8667 4.53332 51.4 5.06666 49 5.99999C46.7334 6.79999 45.2 8.39999 44.4 10.8C43.6 13.0666 43.2 16.6666 43.2 21.6V120.8C43.2 125.6 43.6 129.2 44.4 131.6C45.2 134 46.7334 135.6 49 136.4C51.4 137.067 54.8667 137.4 59.4 137.4H74C80.2667 137.4 85.3334 136.733 89.2 135.4C93.2 134.067 96.3334 132 98.6 129.2C101 126.267 102.8 122.4 104 117.6C105.2 112.8 106.133 106.933 106.8 100H111.4C111 104.133 110.8 109.6 110.8 116.4C110.8 118.933 110.867 122.6 111 127.4C111.267 132.067 111.667 136.933 112.2 142C105.4 141.733 97.7334 141.6 89.2 141.6C80.6667 141.467 73.0667 141.4 66.4 141.4C63.4667 141.4 59.6667 141.4 55 141.4C50.4667 141.4 45.5334 141.467 40.2 141.6C34.8667 141.6 29.4667 141.667 24 141.8C18.5334 141.8 13.3334 141.867 8.40002 142V138C12.9334 137.733 16.3334 137.2 18.6 136.4C21 135.6 22.6 134 23.4 131.6C24.2 129.2 24.6 125.6 24.6 120.8V21.6C24.6 16.6666 24.2 13.0666 23.4 10.8C22.6 8.39999 21 6.79999 18.6 5.99999C16.3334 5.06666 12.9334 4.53332 8.40002 4.39999V0.399994C11.2 0.533326 14.8667 0.666656 19.4 0.799988C23.9334 0.933319 28.8 0.999985 34 0.999985C38.6667 0.999985 43.2667 0.933319 47.8 0.799988C52.4667 0.666656 56.3334 0.533326 59.4 0.399994Z" fill="url(#paint0_linear_2_123)"/>
<path d="M194.4 0.399994V4.39999C189.867 4.53332 186.4 5.06666 184 5.99999C181.733 6.79999 180.2 8.39999 179.4 10.8C178.6 13.0666 178.2 16.6666 178.2 21.6V120.8C178.2 125.6 178.6 129.2 179.4 131.6C180.2 134 181.733 135.6 184 136.4C186.4 137.067 189.867 137.4 194.4 137.4H209C215.267 137.4 220.333 136.733 224.2 135.4C228.2 134.067 231.333 132 233.6 129.2C236 126.267 237.8 122.4 239 117.6C240.2 112.8 241.133 106.933 241.8 100H246.4C246 104.133 245.8 109.6 245.8 116.4C245.8 118.933 245.867 122.6 246 127.4C246.267 132.067 246.667 136.933 247.2 142C240.4 141.733 232.733 141.6 224.2 141.6C215.667 141.467 208.067 141.4 201.4 141.4C198.467 141.4 194.667 141.4 190 141.4C185.467 141.4 180.533 141.467 175.2 141.6C169.867 141.6 164.467 141.667 159 141.8C153.533 141.8 148.333 141.867 143.4 142V138C147.933 137.733 151.333 137.2 153.6 136.4C156 135.6 157.6 134 158.4 131.6C159.2 129.2 159.6 125.6 159.6 120.8V21.6C159.6 16.6666 159.2 13.0666 158.4 10.8C157.6 8.39999 156 6.79999 153.6 5.99999C151.333 5.06666 147.933 4.53332 143.4 4.39999V0.399994C146.2 0.533326 149.867 0.666656 154.4 0.799988C158.933 0.933319 163.8 0.999985 169 0.999985C173.667 0.999985 178.267 0.933319 182.8 0.799988C187.467 0.666656 191.333 0.533326 194.4 0.399994Z" fill="url(#paint1_linear_2_123)"/>
<path d="M0 37H253V80H0V37Z" fill="#FFFEFE"/>
<path d="M249.56 46.944V69.024C249.56 69.92 249.72 70.528 250.04 70.848C250.382 71.168 250.947 71.328 251.736 71.328V72C251.352 71.9787 250.766 71.9573 249.976 71.936C249.208 71.8933 248.419 71.872 247.608 71.872C246.819 71.872 246.008 71.8933 245.176 71.936C244.366 71.9573 243.758 71.9787 243.352 72V71.328C244.142 71.328 244.696 71.168 245.016 70.848C245.358 70.528 245.528 69.92 245.528 69.024V50.784C245.528 49.824 245.379 49.12 245.08 48.672C244.782 48.2027 244.206 47.968 243.352 47.968V47.296C244.035 47.36 244.696 47.392 245.336 47.392C246.147 47.392 246.904 47.36 247.608 47.296C248.312 47.2107 248.963 47.0933 249.56 46.944Z" fill="url(#paint2_linear_2_123)"/>
<path d="M225.249 72.224C224.331 72.224 223.553 72.0533 222.913 71.712C222.273 71.3493 221.793 70.8693 221.473 70.272C221.153 69.6533 220.993 68.9707 220.993 68.224C220.993 67.3067 221.206 66.56 221.633 65.984C222.059 65.3867 222.603 64.9173 223.265 64.576C223.947 64.2133 224.662 63.9147 225.409 63.68C226.155 63.424 226.859 63.1893 227.521 62.976C228.182 62.7413 228.726 62.4747 229.153 62.176C229.579 61.8773 229.793 61.4827 229.793 60.992V58.656C229.793 57.9733 229.686 57.4187 229.473 56.992C229.281 56.544 228.982 56.2133 228.577 56C228.193 55.7653 227.702 55.648 227.105 55.648C226.657 55.648 226.187 55.712 225.697 55.84C225.206 55.968 224.801 56.2133 224.481 56.576C225.035 56.7253 225.462 57.0027 225.761 57.408C226.081 57.8133 226.241 58.304 226.241 58.88C226.241 59.5413 226.017 60.064 225.569 60.448C225.142 60.8107 224.598 60.992 223.937 60.992C223.233 60.992 222.699 60.768 222.337 60.32C221.974 59.872 221.793 59.3493 221.793 58.752C221.793 58.1547 221.942 57.664 222.241 57.28C222.539 56.8747 222.955 56.512 223.489 56.192C224.022 55.8293 224.705 55.5413 225.537 55.328C226.369 55.1147 227.275 55.008 228.257 55.008C229.195 55.008 230.027 55.1147 230.753 55.328C231.478 55.52 232.097 55.872 232.609 56.384C233.121 56.8747 233.451 57.4827 233.601 58.208C233.75 58.9333 233.825 59.8187 233.825 60.864V69.632C233.825 70.1653 233.889 70.5493 234.017 70.784C234.145 70.9973 234.347 71.104 234.625 71.104C234.838 71.104 235.041 71.0507 235.233 70.944C235.425 70.8373 235.638 70.688 235.873 70.496L236.225 71.04C235.755 71.4027 235.265 71.6907 234.753 71.904C234.241 72.1173 233.622 72.224 232.897 72.224C232.15 72.224 231.553 72.1173 231.105 71.904C230.678 71.6907 230.358 71.3813 230.145 70.976C229.953 70.5707 229.846 70.0907 229.825 69.536C229.313 70.3893 228.683 71.0507 227.937 71.52C227.19 71.9893 226.294 72.224 225.249 72.224ZM227.169 70.432C227.681 70.432 228.15 70.2933 228.577 70.016C229.025 69.7387 229.43 69.3227 229.793 68.768V62.304C229.579 62.624 229.27 62.912 228.865 63.168C228.481 63.424 228.065 63.68 227.617 63.936C227.169 64.192 226.742 64.4907 226.337 64.832C225.953 65.152 225.622 65.5573 225.345 66.048C225.089 66.5173 224.961 67.1253 224.961 67.872C224.961 68.704 225.163 69.344 225.569 69.792C225.974 70.2187 226.507 70.432 227.169 70.432Z" fill="url(#paint3_linear_2_123)"/>
<path d="M203.356 78.016C202.097 78.016 200.956 77.8987 199.932 77.664C198.908 77.4293 198.097 77.0773 197.5 76.608C196.902 76.16 196.604 75.584 196.604 74.88C196.604 74.1973 196.902 73.5893 197.5 73.056C198.097 72.5227 198.972 72.1173 200.124 71.84L200.348 72.352C199.942 72.5867 199.633 72.9067 199.42 73.312C199.206 73.7173 199.1 74.144 199.1 74.592C199.1 75.5093 199.516 76.2133 200.348 76.704C201.201 77.216 202.332 77.472 203.74 77.472C204.7 77.472 205.585 77.344 206.396 77.088C207.206 76.832 207.857 76.4373 208.348 75.904C208.838 75.3707 209.084 74.7093 209.084 73.92C209.084 73.2587 208.838 72.704 208.348 72.256C207.878 71.808 206.929 71.584 205.5 71.584H203.388C202.598 71.584 201.873 71.4987 201.212 71.328C200.572 71.1573 200.06 70.88 199.676 70.496C199.292 70.112 199.1 69.5787 199.1 68.896C199.1 68.064 199.441 67.3173 200.124 66.656C200.806 65.9733 201.873 65.312 203.324 64.672L203.676 64.96C203.142 65.2373 202.662 65.536 202.236 65.856C201.83 66.176 201.628 66.5813 201.628 67.072C201.628 67.7547 202.097 68.096 203.036 68.096H206.652C207.761 68.096 208.742 68.2347 209.596 68.512C210.47 68.7893 211.164 69.2267 211.676 69.824C212.188 70.4213 212.444 71.2107 212.444 72.192C212.444 73.216 212.113 74.1653 211.452 75.04C210.79 75.936 209.788 76.6507 208.444 77.184C207.121 77.7387 205.425 78.016 203.356 78.016ZM203.644 65.184C202.492 65.184 201.446 65.0133 200.508 64.672C199.59 64.3093 198.865 63.7547 198.332 63.008C197.798 62.24 197.532 61.2693 197.532 60.096C197.532 58.9227 197.798 57.9627 198.332 57.216C198.865 56.4693 199.59 55.9147 200.508 55.552C201.446 55.1893 202.492 55.008 203.644 55.008C204.817 55.008 205.862 55.1893 206.78 55.552C207.697 55.9147 208.422 56.4693 208.956 57.216C209.489 57.9627 209.756 58.9227 209.756 60.096C209.756 61.2693 209.489 62.24 208.956 63.008C208.422 63.7547 207.697 64.3093 206.78 64.672C205.862 65.0133 204.817 65.184 203.644 65.184ZM203.644 64.608C204.284 64.608 204.785 64.288 205.148 63.648C205.532 62.9867 205.724 61.8027 205.724 60.096C205.724 58.3893 205.532 57.216 205.148 56.576C204.785 55.9147 204.284 55.584 203.644 55.584C203.004 55.584 202.492 55.9147 202.108 56.576C201.745 57.216 201.564 58.3893 201.564 60.096C201.564 61.8027 201.745 62.9867 202.108 63.648C202.492 64.288 203.004 64.608 203.644 64.608ZM208.476 57.728L207.868 57.504C208.188 56.7147 208.71 56.0533 209.436 55.52C210.161 54.9653 210.929 54.688 211.74 54.688C212.358 54.688 212.838 54.8587 213.18 55.2C213.542 55.5413 213.724 56.0213 213.724 56.64C213.724 57.28 213.553 57.7493 213.212 58.048C212.87 58.3467 212.497 58.496 212.092 58.496C211.729 58.496 211.398 58.3787 211.1 58.144C210.801 57.888 210.63 57.504 210.588 56.992C210.545 56.4587 210.716 55.7973 211.1 55.008L211.42 55.136C210.588 55.456 209.969 55.808 209.564 56.192C209.158 56.576 208.796 57.088 208.476 57.728Z" fill="url(#paint4_linear_2_123)"/>
<path d="M182.783 55.008C184.661 55.008 186.133 55.5733 187.199 56.704C188.266 57.8347 188.799 59.6373 188.799 62.112H178.015L177.983 61.504H185.087C185.13 60.4587 185.066 59.4987 184.895 58.624C184.725 57.728 184.447 57.0133 184.063 56.48C183.701 55.9467 183.221 55.68 182.623 55.68C181.813 55.68 181.109 56.16 180.511 57.12C179.914 58.0587 179.541 59.6053 179.391 61.76L179.519 61.952C179.477 62.2293 179.445 62.528 179.423 62.848C179.423 63.168 179.423 63.488 179.423 63.808C179.423 65.28 179.637 66.496 180.063 67.456C180.49 68.416 181.045 69.12 181.727 69.568C182.41 70.016 183.114 70.24 183.839 70.24C184.33 70.24 184.831 70.1653 185.343 70.016C185.855 69.8667 186.357 69.5893 186.847 69.184C187.338 68.7787 187.786 68.2027 188.191 67.456L188.799 67.712C188.565 68.4587 188.17 69.2053 187.615 69.952C187.082 70.6773 186.389 71.2747 185.535 71.744C184.682 72.2133 183.679 72.448 182.527 72.448C181.077 72.448 179.797 72.128 178.687 71.488C177.578 70.848 176.714 69.8987 176.095 68.64C175.477 67.36 175.167 65.8027 175.167 63.968C175.167 62.0267 175.487 60.3947 176.127 59.072C176.789 57.7493 177.695 56.7467 178.847 56.064C179.999 55.36 181.311 55.008 182.783 55.008Z" fill="url(#paint5_linear_2_123)"/>
<path d="M158.798 49.344V49.984C158.073 50.0053 157.518 50.0907 157.134 50.24C156.772 50.368 156.526 50.624 156.398 51.008C156.27 51.3707 156.206 51.9467 156.206 52.736V68.864C156.206 69.5467 156.26 70.0693 156.366 70.432C156.494 70.7733 156.718 70.9973 157.038 71.104C157.358 71.2107 157.817 71.264 158.414 71.264H160.238C161.07 71.264 161.796 71.1147 162.414 70.816C163.054 70.5173 163.609 70.08 164.078 69.504C164.548 68.928 164.932 68.224 165.23 67.392C165.529 66.5387 165.742 65.5787 165.87 64.512H166.606C166.542 65.216 166.51 66.1333 166.51 67.264C166.51 67.7333 166.521 68.4053 166.542 69.28C166.585 70.1547 166.649 71.0613 166.734 72C165.646 71.9573 164.42 71.936 163.054 71.936C161.689 71.9147 160.473 71.904 159.406 71.904C158.894 71.904 158.244 71.904 157.454 71.904C156.665 71.904 155.801 71.9147 154.862 71.936C153.945 71.936 153.006 71.9467 152.046 71.968C151.108 71.968 150.212 71.9787 149.358 72V71.36C150.062 71.3173 150.585 71.232 150.926 71.104C151.289 70.976 151.524 70.72 151.63 70.336C151.758 69.952 151.822 69.376 151.822 68.608V52.736C151.822 51.9467 151.758 51.3707 151.63 51.008C151.524 50.624 151.289 50.368 150.926 50.24C150.585 50.0907 150.062 50.0053 149.358 49.984V49.344C149.892 49.3653 150.574 49.3867 151.406 49.408C152.238 49.4293 153.134 49.44 154.094 49.44C154.969 49.44 155.833 49.4293 156.686 49.408C157.54 49.3867 158.244 49.3653 158.798 49.344Z" fill="url(#paint6_linear_2_123)"/>
<path d="M116.905 72.224C115.988 72.224 115.209 72.0533 114.569 71.712C113.929 71.3493 113.449 70.8693 113.129 70.272C112.809 69.6533 112.649 68.9707 112.649 68.224C112.649 67.3067 112.862 66.56 113.289 65.984C113.716 65.3867 114.26 64.9173 114.921 64.576C115.604 64.2133 116.318 63.9147 117.065 63.68C117.812 63.424 118.516 63.1893 119.177 62.976C119.838 62.7413 120.382 62.4747 120.809 62.176C121.236 61.8773 121.449 61.4827 121.449 60.992V58.656C121.449 57.9733 121.342 57.4187 121.129 56.992C120.937 56.544 120.638 56.2133 120.233 56C119.849 55.7653 119.358 55.648 118.761 55.648C118.313 55.648 117.844 55.712 117.353 55.84C116.862 55.968 116.457 56.2133 116.137 56.576C116.692 56.7253 117.118 57.0027 117.417 57.408C117.737 57.8133 117.897 58.304 117.897 58.88C117.897 59.5413 117.673 60.064 117.225 60.448C116.798 60.8107 116.254 60.992 115.593 60.992C114.889 60.992 114.356 60.768 113.993 60.32C113.63 59.872 113.449 59.3493 113.449 58.752C113.449 58.1547 113.598 57.664 113.897 57.28C114.196 56.8747 114.612 56.512 115.145 56.192C115.678 55.8293 116.361 55.5413 117.193 55.328C118.025 55.1147 118.932 55.008 119.913 55.008C120.852 55.008 121.684 55.1147 122.409 55.328C123.134 55.52 123.753 55.872 124.265 56.384C124.777 56.8747 125.108 57.4827 125.257 58.208C125.406 58.9333 125.481 59.8187 125.481 60.864V69.632C125.481 70.1653 125.545 70.5493 125.673 70.784C125.801 70.9973 126.004 71.104 126.281 71.104C126.494 71.104 126.697 71.0507 126.889 70.944C127.081 70.8373 127.294 70.688 127.529 70.496L127.881 71.04C127.412 71.4027 126.921 71.6907 126.409 71.904C125.897 72.1173 125.278 72.224 124.553 72.224C123.806 72.224 123.209 72.1173 122.761 71.904C122.334 71.6907 122.014 71.3813 121.801 70.976C121.609 70.5707 121.502 70.0907 121.481 69.536C120.969 70.3893 120.34 71.0507 119.593 71.52C118.846 71.9893 117.95 72.224 116.905 72.224ZM118.825 70.432C119.337 70.432 119.806 70.2933 120.233 70.016C120.681 69.7387 121.086 69.3227 121.449 68.768V62.304C121.236 62.624 120.926 62.912 120.521 63.168C120.137 63.424 119.721 63.68 119.273 63.936C118.825 64.192 118.398 64.4907 117.993 64.832C117.609 65.152 117.278 65.5573 117.001 66.048C116.745 66.5173 116.617 67.1253 116.617 67.872C116.617 68.704 116.82 69.344 117.225 69.792C117.63 70.2187 118.164 70.432 118.825 70.432Z" fill="url(#paint7_linear_2_123)"/>
<path d="M98.0763 55.008C98.9723 55.008 99.6869 55.1253 100.22 55.36C100.775 55.5947 101.223 55.8933 101.564 56.256C101.948 56.6613 102.215 57.184 102.364 57.824C102.535 58.464 102.62 59.328 102.62 60.416V69.024C102.62 69.92 102.78 70.528 103.1 70.848C103.442 71.168 104.007 71.328 104.796 71.328V72C104.412 71.9787 103.815 71.9573 103.004 71.936C102.215 71.8933 101.447 71.872 100.7 71.872C99.9109 71.872 99.1429 71.8933 98.3963 71.936C97.6496 71.9573 97.0949 71.9787 96.7323 72V71.328C97.4149 71.328 97.8949 71.168 98.1723 70.848C98.4496 70.528 98.5883 69.92 98.5883 69.024V59.328C98.5883 58.752 98.5349 58.24 98.4283 57.792C98.3216 57.3227 98.1083 56.96 97.7883 56.704C97.4683 56.4267 97.0096 56.288 96.4123 56.288C95.7083 56.288 95.0789 56.48 94.5243 56.864C93.9909 57.248 93.5643 57.7813 93.2443 58.464C92.9456 59.1253 92.7963 59.872 92.7963 60.704V69.024C92.7963 69.92 92.9349 70.528 93.2123 70.848C93.4896 71.168 93.9696 71.328 94.6523 71.328V72C94.2896 71.9787 93.7456 71.9573 93.0203 71.936C92.2949 71.8933 91.5589 71.872 90.8123 71.872C90.0229 71.872 89.2229 71.8933 88.4123 71.936C87.6016 71.9573 86.9936 71.9787 86.5883 72V71.328C87.3776 71.328 87.9323 71.168 88.2523 70.848C88.5936 70.528 88.7643 69.92 88.7643 69.024V58.944C88.7643 57.984 88.6043 57.28 88.2843 56.832C87.9856 56.3627 87.4203 56.128 86.5883 56.128V55.456C87.2709 55.52 87.9323 55.552 88.5723 55.552C89.3616 55.552 90.1083 55.52 90.8123 55.456C91.5376 55.3707 92.1989 55.2533 92.7963 55.104V58.304C93.3296 57.088 94.0656 56.2347 95.0043 55.744C95.9429 55.2533 96.9669 55.008 98.0763 55.008Z" fill="url(#paint8_linear_2_123)"/>
<path d="M74.3125 47.296C75.0805 47.296 75.7098 47.5093 76.2005 47.936C76.6912 48.3627 76.9365 48.928 76.9365 49.632C76.9365 50.336 76.6912 50.9013 76.2005 51.328C75.7098 51.7547 75.0805 51.968 74.3125 51.968C73.5445 51.968 72.9152 51.7547 72.4245 51.328C71.9338 50.9013 71.6885 50.336 71.6885 49.632C71.6885 48.928 71.9338 48.3627 72.4245 47.936C72.9152 47.5093 73.5445 47.296 74.3125 47.296ZM76.5525 55.104V69.024C76.5525 69.92 76.7125 70.528 77.0325 70.848C77.3738 71.168 77.9392 71.328 78.7285 71.328V72C78.3445 71.9787 77.7578 71.9573 76.9685 71.936C76.1791 71.8933 75.3791 71.872 74.5685 71.872C73.7791 71.872 72.9791 71.8933 72.1685 71.936C71.3578 71.9573 70.7498 71.9787 70.3445 72V71.328C71.1338 71.328 71.6885 71.168 72.0085 70.848C72.3498 70.528 72.5205 69.92 72.5205 69.024V58.976C72.5205 57.9947 72.3605 57.28 72.0405 56.832C71.7418 56.3627 71.1765 56.128 70.3445 56.128V55.456C71.0271 55.52 71.6885 55.552 72.3285 55.552C73.1178 55.552 73.8645 55.52 74.5685 55.456C75.2938 55.3707 75.9551 55.2533 76.5525 55.104Z" fill="url(#paint9_linear_2_123)"/>
<path d="M59.881 55.008C60.5424 55.008 61.0864 55.1467 61.513 55.424C61.961 55.7013 62.2917 56.0533 62.505 56.48C62.7184 56.9067 62.825 57.3547 62.825 57.824C62.825 58.528 62.6117 59.1147 62.185 59.584C61.7797 60.0533 61.2357 60.288 60.553 60.288C59.913 60.288 59.3904 60.1173 58.985 59.776C58.5797 59.4347 58.377 58.9653 58.377 58.368C58.377 57.8347 58.505 57.3867 58.761 57.024C59.0384 56.6613 59.3477 56.3733 59.689 56.16C59.4544 56.032 59.1877 55.9893 58.889 56.032C58.377 56.0747 57.9077 56.256 57.481 56.576C57.0544 56.896 56.6917 57.2907 56.393 57.76C56.0944 58.2293 55.8597 58.7307 55.689 59.264C55.5397 59.7973 55.465 60.3093 55.465 60.8V68.704C55.465 69.7493 55.7317 70.4533 56.265 70.816C56.7984 71.1573 57.577 71.328 58.601 71.328V72C58.1104 71.9787 57.3957 71.9573 56.457 71.936C55.5397 71.8933 54.5797 71.872 53.577 71.872C52.745 71.872 51.913 71.8933 51.081 71.936C50.2704 71.9573 49.6624 71.9787 49.257 72V71.328C50.0464 71.328 50.601 71.168 50.921 70.848C51.2624 70.528 51.433 69.92 51.433 69.024V58.944C51.433 57.984 51.273 57.28 50.953 56.832C50.6544 56.3627 50.089 56.128 49.257 56.128V55.456C49.9397 55.52 50.601 55.552 51.241 55.552C52.0304 55.552 52.777 55.52 53.481 55.456C54.2064 55.3707 54.8677 55.2533 55.465 55.104V58.432C55.721 57.8347 56.0517 57.28 56.457 56.768C56.8837 56.256 57.385 55.84 57.961 55.52C58.5584 55.1787 59.1984 55.008 59.881 55.008Z" fill="url(#paint10_linear_2_123)"/>
<path d="M30.9613 72.224C30.0439 72.224 29.2653 72.0533 28.6253 71.712C27.9853 71.3493 27.5053 70.8693 27.1853 70.272C26.8653 69.6533 26.7053 68.9707 26.7053 68.224C26.7053 67.3067 26.9186 66.56 27.3453 65.984C27.7719 65.3867 28.3159 64.9173 28.9773 64.576C29.6599 64.2133 30.3746 63.9147 31.1213 63.68C31.8679 63.424 32.5719 63.1893 33.2333 62.976C33.8946 62.7413 34.4386 62.4747 34.8653 62.176C35.2919 61.8773 35.5053 61.4827 35.5053 60.992V58.656C35.5053 57.9733 35.3986 57.4187 35.1853 56.992C34.9933 56.544 34.6946 56.2133 34.2893 56C33.9053 55.7653 33.4146 55.648 32.8173 55.648C32.3693 55.648 31.8999 55.712 31.4093 55.84C30.9186 55.968 30.5133 56.2133 30.1933 56.576C30.7479 56.7253 31.1746 57.0027 31.4733 57.408C31.7933 57.8133 31.9533 58.304 31.9533 58.88C31.9533 59.5413 31.7293 60.064 31.2813 60.448C30.8546 60.8107 30.3106 60.992 29.6493 60.992C28.9453 60.992 28.4119 60.768 28.0493 60.32C27.6866 59.872 27.5053 59.3493 27.5053 58.752C27.5053 58.1547 27.6546 57.664 27.9533 57.28C28.2519 56.8747 28.6679 56.512 29.2013 56.192C29.7346 55.8293 30.4173 55.5413 31.2493 55.328C32.0813 55.1147 32.9879 55.008 33.9693 55.008C34.9079 55.008 35.7399 55.1147 36.4653 55.328C37.1906 55.52 37.8093 55.872 38.3213 56.384C38.8333 56.8747 39.1639 57.4827 39.3133 58.208C39.4626 58.9333 39.5373 59.8187 39.5373 60.864V69.632C39.5373 70.1653 39.6013 70.5493 39.7293 70.784C39.8573 70.9973 40.0599 71.104 40.3373 71.104C40.5506 71.104 40.7533 71.0507 40.9453 70.944C41.1373 70.8373 41.3506 70.688 41.5853 70.496L41.9373 71.04C41.4679 71.4027 40.9773 71.6907 40.4653 71.904C39.9533 72.1173 39.3346 72.224 38.6093 72.224C37.8626 72.224 37.2653 72.1173 36.8173 71.904C36.3906 71.6907 36.0706 71.3813 35.8573 70.976C35.6653 70.5707 35.5586 70.0907 35.5373 69.536C35.0253 70.3893 34.3959 71.0507 33.6493 71.52C32.9026 71.9893 32.0066 72.224 30.9613 72.224ZM32.8813 70.432C33.3933 70.432 33.8626 70.2933 34.2893 70.016C34.7373 69.7387 35.1426 69.3227 35.5053 68.768V62.304C35.2919 62.624 34.9826 62.912 34.5773 63.168C34.1933 63.424 33.7773 63.68 33.3293 63.936C32.8813 64.192 32.4546 64.4907 32.0493 64.832C31.6653 65.152 31.3346 65.5573 31.0573 66.048C30.8013 66.5173 30.6733 67.1253 30.6733 67.872C30.6733 68.704 30.8759 69.344 31.2813 69.792C31.6866 70.2187 32.2199 70.432 32.8813 70.432Z" fill="url(#paint11_linear_2_123)"/>
<path d="M10.592 49.344V49.984C9.86664 50.0053 9.31198 50.0907 8.92798 50.24C8.56531 50.368 8.31998 50.624 8.19198 51.008C8.06398 51.3707 7.99998 51.9467 7.99998 52.736V68.864C7.99998 69.5467 8.05331 70.0693 8.15998 70.432C8.28798 70.7733 8.51198 70.9973 8.83198 71.104C9.15198 71.2107 9.61064 71.264 10.208 71.264H12.032C12.864 71.264 13.5893 71.1147 14.208 70.816C14.848 70.5173 15.4026 70.08 15.872 69.504C16.3413 68.928 16.7253 68.224 17.024 67.392C17.3226 66.5387 17.536 65.5787 17.664 64.512H18.4C18.336 65.216 18.304 66.1333 18.304 67.264C18.304 67.7333 18.3146 68.4053 18.336 69.28C18.3786 70.1547 18.4426 71.0613 18.528 72C17.44 71.9573 16.2133 71.936 14.848 71.936C13.4826 71.9147 12.2666 71.904 11.2 71.904C10.688 71.904 10.0373 71.904 9.24798 71.904C8.45864 71.904 7.59464 71.9147 6.65598 71.936C5.73864 71.936 4.79998 71.9467 3.83998 71.968C2.90131 71.968 2.00531 71.9787 1.15198 72V71.36C1.85598 71.3173 2.37864 71.232 2.71998 71.104C3.08264 70.976 3.31731 70.72 3.42398 70.336C3.55198 69.952 3.61598 69.376 3.61598 68.608V52.736C3.61598 51.9467 3.55198 51.3707 3.42398 51.008C3.31731 50.624 3.08264 50.368 2.71998 50.24C2.37864 50.0907 1.85598 50.0053 1.15198 49.984V49.344C1.68531 49.3653 2.36798 49.3867 3.19998 49.408C4.03198 49.4293 4.92798 49.44 5.88798 49.44C6.76264 49.44 7.62664 49.4293 8.47998 49.408C9.33331 49.3867 10.0373 49.3653 10.592 49.344Z" fill="url(#paint12_linear_2_123)"/>
<defs>
<linearGradient id="paint0_linear_2_123" x1="59" y1="-75" x2="59" y2="192" gradientUnits="userSpaceOnUse">
<stop stop-color="#0F172A"/>
<stop offset="1" stop-color="#3B82F6"/>
</linearGradient>
<linearGradient id="paint1_linear_2_123" x1="194" y1="-75" x2="194" y2="192" gradientUnits="userSpaceOnUse">
<stop stop-color="#0F172A"/>
<stop offset="1" stop-color="#3B82F6"/>
</linearGradient>
<linearGradient id="paint2_linear_2_123" x1="126.5" y1="37" x2="126.5" y2="80" gradientUnits="userSpaceOnUse">
<stop stop-color="#0F172A"/>
<stop offset="1" stop-color="#3B82F6"/>
</linearGradient>
<linearGradient id="paint3_linear_2_123" x1="126.5" y1="37" x2="126.5" y2="80" gradientUnits="userSpaceOnUse">
<stop stop-color="#0F172A"/>
<stop offset="1" stop-color="#3B82F6"/>
</linearGradient>
<linearGradient id="paint4_linear_2_123" x1="126.5" y1="37" x2="126.5" y2="80" gradientUnits="userSpaceOnUse">
<stop stop-color="#0F172A"/>
<stop offset="1" stop-color="#3B82F6"/>
</linearGradient>
<linearGradient id="paint5_linear_2_123" x1="126.5" y1="37" x2="126.5" y2="80" gradientUnits="userSpaceOnUse">
<stop stop-color="#0F172A"/>
<stop offset="1" stop-color="#3B82F6"/>
</linearGradient>
<linearGradient id="paint6_linear_2_123" x1="126.5" y1="37" x2="126.5" y2="80" gradientUnits="userSpaceOnUse">
<stop stop-color="#0F172A"/>
<stop offset="1" stop-color="#3B82F6"/>
</linearGradient>
<linearGradient id="paint7_linear_2_123" x1="126.5" y1="37" x2="126.5" y2="80" gradientUnits="userSpaceOnUse">
<stop stop-color="#0F172A"/>
<stop offset="1" stop-color="#3B82F6"/>
</linearGradient>
<linearGradient id="paint8_linear_2_123" x1="126.5" y1="37" x2="126.5" y2="80" gradientUnits="userSpaceOnUse">
<stop stop-color="#0F172A"/>
<stop offset="1" stop-color="#3B82F6"/>
</linearGradient>
<linearGradient id="paint9_linear_2_123" x1="126.5" y1="37" x2="126.5" y2="80" gradientUnits="userSpaceOnUse">
<stop stop-color="#0F172A"/>
<stop offset="1" stop-color="#3B82F6"/>
</linearGradient>
<linearGradient id="paint10_linear_2_123" x1="126.5" y1="37" x2="126.5" y2="80" gradientUnits="userSpaceOnUse">
<stop stop-color="#0F172A"/>
<stop offset="1" stop-color="#3B82F6"/>
</linearGradient>
<linearGradient id="paint11_linear_2_123" x1="126.5" y1="37" x2="126.5" y2="80" gradientUnits="userSpaceOnUse">
<stop stop-color="#0F172A"/>
<stop offset="1" stop-color="#3B82F6"/>
</linearGradient>
<linearGradient id="paint12_linear_2_123" x1="126.5" y1="37" x2="126.5" y2="80" gradientUnits="userSpaceOnUse">
<stop stop-color="#0F172A"/>
<stop offset="1" stop-color="#3B82F6"/>
</linearGradient>
</defs>
</svg>
